<?xml version="1.0" standalone="no"?>
<!DOCTYPE svg PUBLIC "-//W3C//DTD SVG 20010904//EN"
 "http://www.w3.org/TR/2001/REC-SVG-20010904/DTD/svg10.dtd">
<svg version="1.0" xmlns="http://www.w3.org/2000/svg"
 width="1280.000000pt" height="1280.000000pt" viewBox="0 0 1280.000000 1280.000000"
 preserveAspectRatio="xMidYMid meet">

<g transform="translate(0.000000,1280.000000) scale(0.100000,-0.100000)"
fill="#000000" stroke="none">
<path d="M5985 9970 c-1291 -106 -2396 -832 -2961 -1948 -177 -349 -285 -704
-346 -1142 -20 -146 -17 -661 6 -819 108 -766 423 -1414 954 -1963 342 -353
760 -637 1202 -816 338 -136 582 -201 955 -254 137 -19 203 -22 460 -22 257 0
323 3 460 22 214 31 385 65 531 106 882 252 1613 792 2086 1544 281 447 460
975 508 1502 14 148 14 486 0 626 -77 788 -413 1508 -970 2078 -587 602 -1346
971 -2200 1071 -163 19 -534 27 -685 15z m650 -1106 c61 -9 128 -20 150 -25
22 -6 56 -15 75 -19 513 -130 979 -465 1265 -909 58 -91 108 -182 102 -188 -3
-2 -29 31 -58 74 -188 281 -486 560 -759 710 -127 70 -247 127 -335 158 -27 9
-59 21 -70 25 -64 27 -253 71 -435 101 -100 16 -485 16 -576 -1 -262 -48 -420
-90 -554 -147 -97 -41 -311 -152 -378 -197 -161 -106 -169 -110 -147 -86 33
37 179 147 262 199 224 138 423 220 678 280 202 48 533 58 780 25z m-1932
-1254 c104 -46 155 -195 116 -337 -22 -78 -102 -249 -154 -328 -60 -90 -155
-182 -200 -194 -60 -16 -74 -14 -104 20 -17 19 -31 27 -35 20 -9 -15 -26 -164
-26 -233 0 -32 -4 -58 -9 -58 -5 0 -20 15 -33 33 -35 49 -31 211 11 412 17 83
44 215 61 295 16 80 34 164 38 187 6 26 5 46 -1 52 -6 6 -3 26 8 56 14 36 22
45 38 43 21 -3 31 -16 47 -62 l11 -29 49 55 c45 50 98 87 126 88 6 0 32 -9 57
-20z m1592 -37 c53 -58 70 -124 53 -208 -12 -63 -40 -95 -66 -78 -14 8 -17 26
-17 86 0 41 -3 78 -7 82 -9 9 -87 -42 -121 -79 -165 -180 -297 -459 -297 -625
0 -62 5 -73 37 -90 60 -31 124 -2 238 112 51 51 97 102 104 115 16 31 31 27
64 -15 39 -52 35 -74 -26 -135 -92 -93 -157 -137 -157 -107 0 13 -39 2 -62
-19 -28 -24 -9 -34 23 -12 24 18 29 19 29 6 0 -19 -85 -63 -138 -72 -36 -6
-44 -3 -79 30 -44 40 -67 96 -85 212 -9 57 -8 88 6 168 9 55 24 110 35 125 36
51 103 190 96 200 -8 13 49 103 131 206 69 88 82 100 122 121 47 24 80 18 117
-23z m2175 -8 c46 -75 43 -87 -70 -267 -97 -153 -165 -257 -177 -268 -3 -3 -4
4 -3 15 1 11 2 29 1 40 -1 18 -2 18 -17 -3 -14 -20 -14 -25 -1 -46 14 -21 12
-27 -34 -95 -27 -41 -49 -76 -49 -78 0 -2 -11 -21 -25 -41 -39 -57 -35 -63 38
-56 34 4 66 10 71 15 6 5 25 9 42 9 18 0 36 5 39 10 10 17 41 11 60 -10 26
-29 6 -48 -26 -27 -22 14 -31 14 -94 0 -112 -25 -185 -46 -194 -58 -15 -18
-24 -58 -12 -51 11 7 26 10 171 36 35 6 69 15 75 19 5 5 31 11 57 14 45 6 48
5 54 -19 9 -34 1 -39 -59 -39 -88 -1 -351 -70 -388 -101 -22 -20 -26 -18 -38
17 -14 40 -14 139 -1 139 5 0 33 34 62 75 29 41 56 75 60 75 4 0 16 17 27 38
11 20 28 46 38 57 10 11 29 42 43 69 14 27 40 65 58 84 18 19 30 37 27 40 -3
3 1 12 9 21 14 15 68 112 108 193 21 44 24 65 6 51 -7 -5 -29 -16 -48 -23 -19
-7 -77 -40 -129 -72 -51 -32 -99 -58 -106 -58 -16 0 -38 53 -38 91 0 35 23 62
71 85 21 9 48 25 62 34 40 28 166 90 212 105 73 23 94 19 118 -20z m-597 -16
c39 -57 33 -74 -25 -76 -26 -1 -68 -11 -94 -22 -25 -12 -61 -21 -79 -21 -44 0
-124 -35 -131 -57 -4 -10 -24 -62 -45 -117 -22 -54 -39 -102 -39 -107 0 -15
31 -10 113 16 119 37 146 41 153 19 4 -11 16 -29 26 -41 11 -12 18 -31 16 -45
-3 -20 -10 -24 -58 -29 -53 -6 -114 -24 -135 -40 -5 -4 -41 -17 -78 -29 -38
-12 -79 -32 -92 -44 -28 -25 -61 -132 -71 -230 l-7 -70 39 23 c36 22 76 45
159 91 34 19 149 60 168 60 7 0 23 -7 35 -16 17 -12 20 -19 12 -29 -8 -9 -6
-14 5 -19 21 -8 19 -46 -2 -46 -48 -1 -205 -78 -346 -171 -60 -39 -115 -68
-122 -65 -18 7 -38 72 -31 101 3 13 14 26 24 29 15 5 17 21 14 168 -1 90 -5
184 -8 210 -6 45 -5 47 32 72 33 23 43 38 76 131 34 95 36 105 19 105 -32 0
-58 51 -47 94 8 31 127 100 218 127 191 55 178 52 178 40 0 -9 -120 -51 -148
-51 -25 -1 -67 -35 -54 -44 7 -4 20 -2 31 4 11 5 30 10 43 10 33 0 192 57 196
70 2 5 -11 10 -29 10 -52 0 -16 22 46 28 6 1 23 -17 38 -39z m-2133 -15 c39
-45 38 -53 -19 -219 -82 -237 -141 -518 -141 -670 0 -59 -3 -75 -15 -75 -18 0
-41 34 -51 75 -4 17 -33 80 -64 142 -31 61 -67 150 -80 197 -12 47 -26 86 -30
86 -8 0 -33 -78 -49 -155 -6 -27 -20 -91 -31 -142 -10 -50 -22 -121 -26 -158
-7 -71 -15 -76 -48 -31 -18 23 -21 42 -20 114 1 86 12 149 59 347 54 223 74
330 82 438 4 63 6 68 26 65 12 -2 32 -19 45 -38 22 -32 23 -41 17 -110 -10
-106 -10 -114 4 -215 27 -200 78 -394 100 -381 4 3 11 38 15 78 7 80 48 272
76 358 9 30 34 111 54 180 21 69 39 131 41 138 7 20 21 14 55 -24z m-644 -92
c11 -57 -9 -149 -87 -397 -43 -139 -100 -386 -106 -462 -7 -91 -17 -102 -52
-57 -22 28 -26 68 -15 137 6 34 33 54 35 25 0 -19 37 117 50 185 10 51 9 60
-5 70 -11 8 -15 19 -10 31 7 18 8 18 21 1 17 -24 20 -20 28 38 5 32 4 47 -4
47 -6 0 -11 -11 -11 -25 0 -14 -5 -25 -11 -25 -7 0 -9 9 -4 23 18 59 26 91 54
202 17 66 35 154 42 195 6 41 13 79 16 83 10 16 53 -36 59 -71z m1639 37 c28
-53 16 -154 -41 -333 -26 -85 -25 -113 4 -100 9 4 78 13 152 20 118 11 137 15
152 34 10 12 18 32 18 44 0 13 3 26 8 30 4 4 7 15 7 24 0 10 10 60 22 112 12
52 25 119 30 149 4 30 13 56 19 58 20 7 54 -61 54 -108 0 -44 -29 -180 -54
-254 -72 -213 -131 -454 -142 -577 -8 -86 -18 -96 -54 -51 -18 23 -20 35 -15
87 9 81 12 93 27 78 9 -9 17 6 35 65 12 43 25 103 29 133 3 30 10 60 13 65 4
6 13 30 20 55 7 25 17 53 22 62 15 29 10 33 -11 10 -11 -12 -20 -28 -20 -36 0
-8 -4 -18 -10 -21 -5 -3 -10 -21 -10 -39 l0 -33 -127 -6 c-71 -4 -153 -13
-183 -20 l-55 -13 -18 -70 c-31 -121 -57 -261 -57 -303 0 -48 -20 -55 -46 -16
-12 19 -16 45 -15 97 2 77 14 117 26 86 10 -25 25 -12 25 22 0 16 4 31 9 35 5
3 13 31 16 63 4 31 15 82 25 112 30 94 33 118 16 136 -20 19 -20 29 0 48 8 9
13 20 9 26 -3 5 -2 17 4 27 10 20 23 79 47 223 9 52 18 101 20 107 5 20 33 4
49 -28z m-140 -461 c-4 -24 -11 -47 -16 -52 -5 -6 -9 -23 -9 -38 0 -26 -2 -28
-27 -22 -40 10 -42 11 -58 51 -24 56 -13 73 46 73 37 0 49 4 49 15 0 8 5 15
11 15 7 0 8 -14 4 -42z m375 -119 c0 -11 -4 -17 -10 -14 -5 3 -10 13 -10 21 0
8 5 14 10 14 6 0 10 -9 10 -21z m-2060 2 c0 -6 -4 -13 -10 -16 -5 -3 -10 1
-10 9 0 9 5 16 10 16 6 0 10 -4 10 -9z m-29 -74 c-8 -8 -11 -5 -11 9 0 27 14
41 18 19 2 -9 -1 -22 -7 -28z m1661 11 c-9 -9 -12 -7 -12 12 0 19 3 21 12 12
9 -9 9 -15 0 -24z m404 -16 c-12 -11 -18 7 -10 30 l8 23 4 -23 c2 -13 1 -26
-2 -30z m-419 -64 c-3 -8 -6 -5 -6 6 -1 11 2 17 5 13 3 -3 4 -12 1 -19z m413
1 c0 -5 -4 -9 -10 -9 -5 0 -10 7 -10 16 0 8 5 12 10 9 6 -3 10 -10 10 -16z
m-2073 -11 c-3 -8 -6 -5 -6 6 -1 11 2 17 5 13 3 -3 4 -12 1 -19z m3630 -330
c-3 -7 -5 -2 -5 12 0 14 2 19 5 13 2 -7 2 -19 0 -25z m-4380 -45 c-3 -10 -5
-2 -5 17 0 19 2 27 5 18 2 -10 2 -26 0 -35z m4364 -128 c-6 -27 -20 -90 -30
-140 -116 -543 -475 -1053 -955 -1354 -272 -171 -543 -274 -841 -319 -222 -34
-378 -40 -539 -21 -341 39 -559 102 -831 241 -274 140 -569 389 -747 633 -4 5
-18 24 -31 40 -90 114 -222 374 -285 561 -58 170 -113 424 -92 424 3 0 12 -28
19 -62 77 -363 249 -711 491 -993 280 -325 643 -560 1050 -678 176 -52 283
-71 490 -86 231 -18 526 18 765 92 595 185 1081 605 1348 1167 79 168 145 369
183 565 8 39 8 39 12 10 2 -16 -1 -52 -7 -80z m-2523 -97 c24 -24 15 -88 -46
-314 -16 -61 -17 -75 -6 -95 19 -34 17 -39 -9 -39 -21 0 -24 -6 -35 -77 -7
-43 -14 -100 -17 -128 -14 -124 -22 -140 -44 -86 -12 27 -5 144 15 239 5 26 3
32 -10 32 -30 0 -70 -27 -114 -75 -46 -51 -38 -49 -137 -24 -22 6 -59 13 -82
16 -24 3 -43 9 -43 14 0 12 67 12 74 0 7 -10 56 -2 56 9 0 13 -30 20 -55 14
-17 -4 -29 0 -42 15 -22 26 -33 27 -33 1 0 -11 -6 -20 -13 -20 -8 0 -22 9 -32
20 -10 11 -24 20 -32 20 -7 0 -13 -9 -13 -20 0 -18 -7 -20 -74 -20 l-74 0 -16
-71 c-9 -39 -16 -89 -16 -111 0 -45 -16 -48 -38 -7 -20 38 -6 133 50 342 27
104 47 191 44 195 -4 3 -26 -15 -50 -41 -24 -26 -48 -47 -54 -47 -16 0 -25 56
-13 78 6 11 36 42 66 71 41 36 65 51 85 51 16 0 32 5 35 10 22 36 173 -23 222
-87 23 -30 28 -46 27 -91 -1 -46 -6 -58 -35 -89 -41 -43 -134 -113 -149 -113
-7 0 -10 -6 -8 -12 5 -13 53 -23 158 -33 40 -4 60 -12 74 -28 l18 -22 52 55
c57 62 179 280 221 395 14 38 25 71 25 72 0 1 10 4 23 6 12 2 24 5 28 6 3 0
10 -4 17 -11z m361 1 c67 -24 106 -139 76 -229 -43 -128 -147 -292 -209 -327
-32 -18 -83 -16 -95 4 -15 28 -25 7 -29 -65 -1 -37 -5 -78 -8 -91 -5 -23 -6
-23 -22 -7 -24 24 -21 182 7 306 51 232 61 285 61 320 0 20 7 45 15 56 15 19
15 19 30 0 8 -11 15 -26 15 -34 0 -9 21 5 50 32 53 49 60 52 109 35z m1608
-14 c33 -23 40 -73 14 -98 -21 -21 -21 -21 -35 -2 -14 20 -15 20 -51 1 -40
-22 -163 -137 -189 -178 -10 -15 -15 -32 -11 -38 3 -5 31 -10 62 -10 31 0 71
-5 88 -11 61 -22 99 -117 72 -181 -18 -42 -100 -116 -163 -147 -27 -12 -56
-27 -65 -31 -9 -5 -32 -12 -51 -15 -41 -8 -55 5 -60 55 -3 33 -1 35 32 41 19
3 43 10 53 14 10 4 17 3 17 -4 0 -6 7 -11 16 -11 12 0 14 3 6 13 -8 9 0 17 31
32 22 11 54 31 71 45 111 93 104 108 -56 125 -80 9 -99 27 -101 95 -1 47 4 62
30 100 42 61 137 151 197 189 57 35 64 37 93 16z m-3018 -5 c14 0 81 -68 81
-82 0 -8 -11 -29 -25 -48 -13 -18 -29 -48 -36 -67 -12 -38 -39 -45 -39 -10 0
13 6 44 14 70 15 50 8 67 -28 67 -58 0 -148 -88 -202 -197 -51 -103 -78 -266
-54 -327 19 -51 93 -25 190 65 43 40 50 49 30 44 -14 -4 -39 -9 -56 -12 -29
-4 -33 -2 -39 26 -3 17 -4 35 0 41 6 10 93 52 135 65 14 4 31 12 38 18 22 18
36 -7 15 -28 -17 -18 -17 -18 9 -12 15 4 40 12 55 18 22 8 24 12 13 19 -8 6
-24 10 -35 10 -17 0 -17 2 -5 10 23 15 50 12 57 -7 3 -10 13 -26 20 -35 17
-19 8 -42 -14 -34 -8 3 -30 -1 -49 -9 -30 -12 -34 -18 -28 -39 4 -17 -3 -43
-20 -78 -14 -29 -35 -89 -46 -132 -11 -44 -23 -82 -26 -85 -15 -15 -24 32 -18
102 4 42 3 77 -1 77 -4 0 -33 -25 -63 -55 -61 -61 -86 -72 -129 -58 -66 22
-105 156 -83 281 26 146 92 276 180 355 49 44 95 61 138 50 8 -2 17 -3 21 -3z
m2560 -36 c35 -45 25 -174 -13 -174 -19 0 -27 27 -20 66 9 47 -1 57 -37 35
-43 -26 -129 -139 -172 -225 -54 -110 -81 -229 -59 -262 25 -37 93 -23 143 28
21 22 43 37 48 34 15 -10 61 12 61 29 0 21 -10 19 -37 -7 -36 -34 -26 -7 11
30 l33 33 22 -27 c11 -15 21 -32 21 -38 0 -15 -87 -100 -118 -115 -12 -7 -27
-9 -33 -6 -14 9 -39 -14 -33 -30 4 -8 -8 -17 -31 -25 -30 -10 -40 -9 -61 5
-48 31 -78 146 -64 245 11 77 129 314 192 384 65 73 101 78 147 20z m-873 -40
c17 -40 15 -59 -23 -182 -14 -46 -23 -85 -21 -87 11 -11 201 13 214 27 14 13
47 145 61 241 6 43 13 46 32 15 21 -33 15 -99 -20 -211 -17 -56 -34 -115 -39
-132 -4 -16 -17 -64 -28 -105 -11 -41 -23 -103 -27 -137 -4 -35 -10 -63 -14
-63 -31 0 -43 89 -16 117 10 9 13 23 9 35 -4 13 -2 18 5 14 14 -9 31 56 17 67
-8 6 -7 10 2 14 6 2 12 13 12 24 0 11 -6 22 -12 24 -16 6 -216 -20 -224 -28
-10 -10 -35 -116 -45 -192 -6 -38 -12 -72 -15 -75 -10 -10 -34 34 -34 63 0 16
9 41 19 55 10 15 19 30 19 35 1 4 6 24 12 45 13 47 13 93 1 73 -12 -19 -33 -9
-50 22 -20 37 -8 57 34 57 30 0 35 3 35 24 0 14 4 27 9 30 5 3 11 23 14 43 11
88 41 223 49 223 5 0 16 -16 24 -36z m485 -11 c10 -26 -5 -95 -65 -303 -41
-141 -66 -252 -66 -292 0 -28 -13 -37 -26 -17 -8 14 -13 89 -6 106 2 7 9 10
16 6 6 -3 8 -3 4 1 -3 4 0 23 8 41 8 19 14 60 14 90 0 31 3 54 8 52 4 -3 13 1
20 9 10 10 9 16 -1 25 -11 11 -8 32 15 123 15 61 28 122 28 136 0 14 3 35 6
48 5 18 9 20 21 10 8 -7 19 -23 24 -35z m-134 -405 c-3 -8 -6 -5 -6 6 -1 11 2
17 5 13 3 -3 4 -12 1 -19z m-1624 -405 c-7 -2 -19 -2 -25 0 -7 3 -2 5 12 5 14
0 19 -2 13 -5z m540 0 c-7 -2 -19 -2 -25 0 -7 3 -2 5 12 5 14 0 19 -2 13 -5z
m824 1 c-3 -3 -12 -4 -19 -1 -8 3 -5 6 6 6 11 1 17 -2 13 -5z m226 -1 c-7 -2
-19 -2 -25 0 -7 3 -2 5 12 5 14 0 19 -2 13 -5z m-1172 -26 c-13 -13 -26 -3
-16 12 3 6 11 8 17 5 6 -4 6 -10 -1 -17z m1307 -13 c-10 -10 -28 6 -28 24 0
15 1 15 17 -1 9 -9 14 -19 11 -23z m-958 -8 c0 -3 -4 -8 -10 -11 -5 -3 -10 -1
-10 4 0 6 5 11 10 11 6 0 10 -2 10 -4z m-320 -27 c0 -5 -16 -9 -35 -9 -19 0
-35 5 -35 10 0 6 11 8 25 4 16 -4 25 -2 25 6 0 6 5 8 10 5 6 -3 10 -10 10 -16z
m760 11 c0 -5 -2 -10 -4 -10 -3 0 -8 5 -11 10 -3 6 -1 10 4 10 6 0 11 -4 11
-10z m415 0 c3 -5 -3 -10 -14 -10 -12 0 -21 5 -21 10 0 6 6 10 14 10 8 0 18
-4 21 -10z m153 -33 c5 -24 -15 -21 -21 4 -3 13 -1 19 6 16 7 -2 13 -11 15
-20z m-1037 0 c-1 -12 -15 -9 -19 4 -3 6 1 10 8 8 6 -3 11 -8 11 -12z m889 -7
c0 -5 -5 -10 -11 -10 -5 0 -7 5 -4 10 3 6 8 10 11 10 2 0 4 -4 4 -10z m-420
-10 c0 -5 -2 -10 -4 -10 -3 0 -8 5 -11 10 -3 6 -1 10 4 10 6 0 11 -4 11 -10z"/>
<path d="M4630 7523 c-86 -59 -204 -256 -234 -393 -10 -41 -24 -102 -31 -135
-29 -124 -29 -123 14 -136 42 -12 65 -3 125 50 34 31 141 184 183 261 71 132
105 268 78 320 -26 51 -87 66 -135 33z"/>
<path d="M6185 6810 c-25 -26 -34 -40 -24 -40 24 0 83 43 87 63 6 29 -22 19
-63 -23z"/>
<path d="M8373 7553 c9 -2 23 -2 30 0 6 3 -1 5 -18 5 -16 0 -22 -2 -12 -5z"/>
<path d="M8280 7520 c-46 -25 -24 -25 31 0 26 11 36 19 24 19 -11 0 -36 -8
-55 -19z"/>
<path d="M8243 7190 c-3 -11 -9 -20 -14 -20 -5 0 -9 -7 -9 -15 0 -8 6 -15 14
-15 16 0 46 37 46 57 0 21 -31 15 -37 -7z"/>
<path d="M8120 6984 c-14 -4 -27 -32 -47 -99 -5 -17 -2 -16 14 5 27 33 65 100
55 99 -4 -1 -14 -3 -22 -5z"/>
<path d="M7985 6750 c-3 -5 -1 -10 4 -10 6 0 11 5 11 10 0 6 -2 10 -4 10 -3 0
-8 -4 -11 -10z"/>
<path d="M7560 7124 c-111 -38 -117 -40 -107 -50 6 -6 159 29 210 48 26 10 32
28 11 35 -5 1 -56 -14 -114 -33z"/>
<path d="M7575 6732 c-89 -41 -139 -71 -132 -79 12 -12 247 92 247 109 0 16
-37 6 -115 -30z"/>
<path d="M4966 7085 c-3 -8 -1 -15 4 -15 6 0 10 7 10 15 0 8 -2 15 -4 15 -2 0
-6 -7 -10 -15z"/>
<path d="M6631 7094 c0 -11 3 -14 6 -6 3 7 2 16 -1 19 -3 4 -6 -2 -5 -13z"/>
<path d="M6805 7019 c-38 -4 -86 -12 -105 -17 -29 -9 -21 -10 50 -6 168 9 224
16 209 25 -15 10 -49 9 -154 -2z"/>
<path d="M5293 6024 c-7 -3 -13 -18 -13 -34 0 -15 -11 -71 -25 -124 -14 -53
-25 -99 -25 -102 0 -29 142 61 218 137 50 51 53 78 12 102 -29 18 -144 32
-167 21z"/>
<path d="M5825 5840 c-40 -80 -41 -85 -18 -94 10 -4 14 -4 10 0 -4 4 2 18 14
30 11 12 22 33 23 45 2 13 6 39 10 57 12 50 -1 38 -39 -38z"/>
<path d="M6275 6085 c-55 -28 -147 -184 -165 -282 -6 -32 -14 -77 -19 -101 -7
-36 -5 -44 10 -52 26 -14 59 2 101 48 76 84 151 228 163 313 6 42 4 48 -20 68
-33 25 -32 25 -70 6z"/>
<path d="M7733 5763 c9 -2 23 -2 30 0 6 3 -1 5 -18 5 -16 0 -22 -2 -12 -5z"/>
<path d="M7800 5750 c0 -6 7 -10 15 -10 8 0 15 2 15 4 0 2 -7 6 -15 10 -8 3
-15 1 -15 -4z"/>
<path d="M4880 5740 c0 -5 7 -10 15 -10 8 0 15 5 15 10 0 6 -7 10 -15 10 -8 0
-15 -4 -15 -10z"/>
<path d="M4855 5590 c-3 -5 -1 -10 4 -10 6 0 11 5 11 10 0 6 -2 10 -4 10 -3 0
-8 -4 -11 -10z"/>
<path d="M6623 5753 c-36 -2 -63 -9 -63 -15 0 -5 7 -7 16 -4 9 3 47 6 85 6 39
0 69 4 69 10 0 6 -10 9 -22 8 -13 -1 -51 -3 -85 -5z"/>
</g>
</svg>
